# xmcd
#
# Track frame offsets: 
#        150
#        12680
#        25105
#        38147
#        48284
#        62216
#        75992
#        91496
#        104520
#        123555
#        135873
#        150357
#        165410
#        179540
#        194100
#        209062
#        222588
#
# Disc length: 3157 seconds
#
# Revision: 2
# Processed by: cddbd v1.5.2PL0 Copyright (c) Steve Scherf et al.
# Submitted via: ExactAudioCopy v0.99pb4
#
DISCID=ef0c5311
DTITLE=Frank Sinatra - 10 CD Set [CD9)
DYEAR=2005
DGENRE=Jazz
TTITLE0=That Old Black Magic
TTITLE1=All The Things You Are 
TTITLE2=My Heart Stood Still
TTITLE3=As Time Goes By
TTITLE4=I'll Be Seeing You
TTITLE5=If You Are But A Dream
TTITLE6=There's No You
TTITLE7=When Your Lover Has Gone
TTITLE8=Stormy Weather
TTITLE9=Saturday Night
TTITLE10=Nancy
TTITLE11=The House I Live In
TTITLE12=These Foolish Things
TTITLE13=Where Or When
TTITLE14=Someone To Watch Over Me
TTITLE15=You Go To My Head
TTITLE16=I Only Have Eyes For You
EXTD=YEAR: 2005
EXTT0=
EXTT1=
EXTT2=
EXTT3=
EXTT4=
EXTT5=
EXTT6=
EXTT7=
EXTT8=
EXTT9=
EXTT10=
EXTT11=
EXTT12=
EXTT13=
EXTT14=
EXTT15=
EXTT16=
PLAYORDER=
